<?xml version="1.0" encoding="UTF-8"?>
<svg id="Layer_1" data-name="Layer 1" xmlns="http://www.w3.org/2000/svg" viewBox="0 0 1023.45 1023.15">
  <path d="m512.63,1022.88c-90.8,0-181.6.44-272.39-.23-33.45-.24-67.15-1.01-99.4-12.1-72.93-25.08-118.48-75.56-133.31-150.83-6.36-32.3-7.08-66.06-7.19-99.17C-.23,590.82-.04,421.1.55,251.38c.12-35.8.66-71.78,11.26-106.68C36.39,63.79,105.82,8.3,190.39,3.22c29.89-1.79,59.87-2.86,89.82-2.91,159.04-.29,318.09-.61,477.13.2,35.75.18,72.31.87,107.05,8.18,89.82,18.89,149.36,90.49,155.61,182.14,1.96,28.68,3.1,57.48,3.15,86.23.3,157.86.56,315.72-.17,473.57-.17,36.37-.66,73.4-7.25,108.96-16.72,90.25-87.47,151.95-179.19,160.21-22.14,1.99-44.43,2.26-66.65,3.27-2.96.14-5.93.02-8.9.02-82.79,0-165.57,0-248.36,0v-.23Zm305.78-201.2c.27-2.78.63-4.79.63-6.8.02-86.63,1.09-173.28-.46-259.89-.76-42.2-16.24-80.8-47.78-109.75-67.63-62.05-171.38-49.51-229.01,9.22-4.26,4.34-8.23,8.95-13.92,15.18,0-17.53-.39-32.84.17-48.11.28-7.6-2.35-9.47-9.61-9.4-32.63.34-65.27.13-97.91.16-2.86,0-5.71.38-8.62.58v408.5h123.15c0-4.54,0-8.33,0-12.13,0-68.54-.08-137.07.06-205.61.09-41.77,23.54-73.27,61.66-81.51,30.76-6.66,59.36-2.41,81.2,22.89,13.49,15.63,16.8,34.91,16.77,54.95-.1,70.31-.19,140.63-.28,210.94,0,3.45,0,6.89,0,10.77h123.97Zm-478.34-408.63h-125.91v408.5h125.91v-408.5Zm-135.65-134.81c.03,40.53,32.33,73.03,72.8,73.26,38.78.22,72.4-32.95,72.76-71.82.38-40.91-32.35-73.96-73.09-73.81-40.26.15-72.51,32.35-72.48,72.36Z"/>
</svg>