<?xml version="1.0" encoding="utf-8"?>
<!-- Generator: Adobe Illustrator 27.3.1, SVG Export Plug-In . SVG Version: 6.00 Build 0)  -->
<svg version="1.1" id="Layer_1" xmlns="http://www.w3.org/2000/svg" xmlns:xlink="http://www.w3.org/1999/xlink" x="0px" y="0px"
	 viewBox="0 0 120 120" style="enable-background:new 0 0 120 120;" xml:space="preserve">
<style type="text/css">
	.st0{fill:#95FFD3;}
</style>
<path class="st0" d="M12,28c-2.2,0-4,1.7-4.1,3.9c0,2.2,1.7,4,3.9,4.1c0,0,0.1,0,0.1,0h96c2.2,0,4-1.7,4.1-3.9c0-2.2-1.7-4-3.9-4.1
	c0,0-0.1,0-0.1,0H12z M12,56c-2.2,0-4,1.7-4.1,3.9c0,2.2,1.7,4,3.9,4.1c0,0,0.1,0,0.1,0h96c2.2,0,4-1.7,4.1-3.9c0-2.2-1.7-4-3.9-4.1
	c0,0-0.1,0-0.1,0H12z M12,84c-2.2,0-4,1.7-4.1,3.9c0,2.2,1.7,4,3.9,4.1c0,0,0.1,0,0.1,0h96c2.2,0,4-1.7,4.1-3.9s-1.7-4-3.9-4.1
	c0,0-0.1,0-0.1,0H12z"/>
</svg>
