<?xml version="1.0" encoding="UTF-8"?>
<svg id="a" data-name="Layer 1" xmlns="http://www.w3.org/2000/svg" viewBox="0 0 1000 689.12">
  <path d="m998.23,290.86c-6.49-65.79-29.01-124.32-66.92-173.96-37.14-48.55-87.91-87.07-150.91-114.47l-2.97-1.28c-1.75-.76-3.64-1.15-5.55-1.15h-262.74c-5.67,0-10.78,3.42-12.94,8.66l-122.05,296.24c-4.76,11.54-21.1,11.55-25.87.02l-67.48-163.04L225.56,8.64c-2.17-5.23-7.27-8.64-12.93-8.64H14.01C4.05,0-2.72,10.1,1.06,19.31l271.47,660.94c2.16,5.25,7.27,8.68,12.95,8.68h.54c5.68,0,10.8-3.44,12.95-8.7L549.46,67.6c2.15-5.26,7.27-8.7,12.95-8.7h196.96c2.03,0,4.04.43,5.88,1.28,103.54,47.81,163.82,129.51,174.38,236.48,13.38,135.62-62.64,274.64-181.12,332.18-1.9.92-4,1.39-6.11,1.38-44.49-.02-67.09-.18-95.5-.38l-11.5-.07c-13.36-.09-28.52-.19-47.75-.28-38.7-.18-69.84.07-99.97.32-24.22.21-51.67.44-84.4.43h0c-5.64,0-10.72,3.38-12.91,8.58l-12.88,30.7c-3.87,9.22,2.9,19.41,12.91,19.41h55.18c10.37-.06,20.42-.15,30.36-.22h2.75c35.06-.28,68.16-.53,108.65-.32,18.57.09,33.48.19,46.63.28l12.5.07c32.39.22,55.81.38,105.56.38h3.31c1.97,0,3.92-.42,5.71-1.22l3-1.34c43.29-19.38,79.91-50.54,109.2-82.81,29.29-32.28,51.24-65.69,65.23-89.56,33.69-57.54,51.49-122.35,51.49-187.4,0-12-.59-24.09-1.77-35.93Zm-732.55,212.93L90.43,79.77c-3.81-9.21,2.96-19.34,12.93-19.34h68.55c5.66,0,10.76,3.4,12.93,8.63l141.31,340.3c1.42,3.43,1.43,7.28,0,10.71l-34.61,83.72c-4.77,11.53-21.1,11.53-25.87,0Z" style="fill: #231f20; stroke-width: 0px;"/>
  <g>
    <path d="m817.55,226.49l18.3,32.34c-5.07-11.01-11.19-21.82-18.3-32.34Zm22.43,41.86l2.83,7.44c-.87-2.49-1.83-4.96-2.83-7.44Zm9.2,28.92c.56,2.43,1.09,4.86,1.58,7.3-.49-2.44-1-4.86-1.58-7.3Zm3.78,21.95l1.06,22c.12-7.3-.24-14.65-1.06-22Z" style="fill: #231f20; stroke-width: 0px;"/>
    <path d="m852.98,319.73c-.02-.33-.04-.67-.08-1-.25-2.28-.56-4.54-.9-6.84-.37-2.43-.8-4.87-1.25-7.32-.46-2.31-.96-4.61-1.48-6.9-.06-.27-.13-.54-.21-.8l-5.08-17.74c-.31-.93-.63-1.88-.97-2.81-.06-.18-.13-.35-.21-.53l-2.83-7.44c-.47-1.19-.96-2.39-1.47-3.56l-2.38-5.34c-.18-.41-.39-.82-.61-1.21l-17.66-31.19c-.21-.37-.43-.73-.67-1.08-21.23-31.12-51.09-58.9-84.12-78.24l-4.81-2.82c-2.09-1.22-4.45-1.88-6.87-1.92l-112.9-1.65c-5.79-.08-11.03,3.4-13.19,8.78l-149.28,371.66c-3.66,9.12,2.96,19.07,12.79,19.21l262.98,3.73h.78s8.11-4.43,8.11-4.43c32.45-17.73,62.67-46.53,85.08-81.09,24.02-36.99,37.24-77.11,38.21-116.05.01-.65.04-1.28.04-1.93l-1.04-21.5Zm-69.41,21.65c-1.2,47.25-32.55,101.06-75.26,130.11-2.41,1.64-5.26,2.53-8.18,2.49l-138.13-1.96c-9.84-.14-16.46-10.12-12.78-19.24l93.6-231.54c2.17-5.36,7.4-8.83,13.18-8.75l44.85.65c2.8.04,5.52.93,7.83,2.52,36.36,25.12,76.25,71.81,74.88,125.72Z" style="fill: #231f20; stroke-width: 0px;"/>
  </g>
</svg>